 http://desibbrg.org/images/66952052392581364616.gif 
http://desibbrg.org/images/50103775576814531961.jpg 
http://desibbrg.org/images/78284805950985978110.png 
http://desibbrg.org/images/67500612178195814729.png 
http://desibbrg.org/images/30493657249683336533.png 
http://desibbrg.org/images/06203605092595839643.png

Media Info - 
Video
ID : 224 (0xE0)
Format : MPEG Video
Format version : Version 1
Format settings, BVOP : Yes
Format settings, Matrix : Custom
Duration : 1h 48mn
Bit rate mode : Variable
Bit rate : 600 Kbps
Width : 352 pixels
Height : 288 pixels
Display aspect ratio : 4:3
Frame rate : 25.000 fps
Standard : PAL
Color space : YUV
Bit depth : 8 bits
Scan type : Progressive
Compression mode : Lossy
Bits/(Pixel*Frame) : 0.237
Stream size : 463 MiB (89%)
Writing library : TMPGEnc Video Mastering Works 5 Version. 5.0.5.32

Audio
ID : 192 (0xC0)
Format : MPEG Audio
Format version : Version 1
Format profile : Layer 2
Duration : 1h 48mn
Bit rate mode : Constant
Bit rate : 64.0 Kbps
Channel(s) : 2 channels
Sampling rate : 48.0 KHz
Compression mode : Lossy
Stream size : 49.7 MiB (9%)

Ripper : Master Mind

Seeding 24x7... Extreme Seeding...


Enjoy!
